<svg width="18" height="18" viewBox="0 0 18 18" fill="none" xmlns="http://www.w3.org/2000/svg">
<path d="M16.36 6.12C16.76 6.424 17 6.896 17 7.4V15.4C17 15.8243 16.8314 16.2313 16.5314 16.5314C16.2313 16.8314 15.8243 17 15.4 17H2.6C2.17565 17 1.76869 16.8314 1.46863 16.5314C1.16857 16.2313 1 15.8243 1 15.4V7.4C1 7.15161 1.05783 6.90663 1.16892 6.68446C1.28 6.46229 1.44129 6.26904 1.64 6.12L8.04 1.32C8.31695 1.11228 8.65381 1 9 1C9.34619 1 9.68305 1.11228 9.96 1.32L16.36 6.12Z" stroke="white" stroke-width="2" stroke-linecap="round" stroke-linejoin="round"/>
<path d="M17 7.40002L9.824 11.96C9.57702 12.1148 9.29145 12.1968 9 12.1968C8.70855 12.1968 8.42298 12.1148 8.176 11.96L1 7.40002" stroke="white" stroke-width="2" stroke-linecap="round" stroke-linejoin="round"/>
</svg>

